HIERARCHY
ROOT Hips
{
	OFFSET -7.399734 108.848358 -3.559000
	CHANNELS 6 Xposition Yposition Zposition Xrotation Yrotation Zrotation
	JOINT Chest
	{
		OFFSET -1.419860 13.471565 1.629474
		CHANNELS 3 Xrotation Yrotation Zrotation
		JOINT Chest2
		{
			OFFSET -0.565805 21.340813 1.821073
			CHANNELS 3 Xrotation Yrotation Zrotation
			JOINT Chest3
			{
				OFFSET 4.173223 14.323822 -0.481772
				CHANNELS 3 Xrotation Yrotation Zrotation
				JOINT Neck
				{
					OFFSET 3.002047 16.919922 1.822032
					CHANNELS 3 Xrotation Yrotation Zrotation
					JOINT Head
					{
						OFFSET 0.938861 9.975372 3.072157
						CHANNELS 3 Xrotation Yrotation Zrotation
						End Site
						{
							OFFSET 0.978267 9.989822 3.012343
						}
					}
				}
				JOINT LeftCollar
				{
					OFFSET 4.881509 12.060516 5.702562
					CHANNELS 3 Xrotation Yrotation Zrotation
					JOINT LeftUpArm
					{
						OFFSET 17.475521 -1.547165 -0.843626
						CHANNELS 3 Xrotation Yrotation Zrotation
						JOINT LeftLowArm
						{
							OFFSET 27.530302 -3.344284 19.251644
							CHANNELS 3 Xrotation Yrotation Zrotation
							JOINT LeftHand
							{
								OFFSET 22.976120 -0.884201 19.294106
								CHANNELS 3 Xrotation Yrotation Zrotation
								End Site
								{
									OFFSET 5.021576 -0.193298 4.216827
								}
							}
						}
					}
				}
				JOINT RightCollar
				{
					OFFSET -2.648589 13.757980 2.347669
					CHANNELS 3 Xrotation Yrotation Zrotation
					JOINT RightUpArm
					{
						OFFSET -6.392563 10.507584 -12.538818
						CHANNELS 3 Xrotation Yrotation Zrotation
						JOINT RightLowArm
						{
							OFFSET -7.303564 32.037766 7.744268
							CHANNELS 3 Xrotation Yrotation Zrotation
							JOINT RightHand
							{
								OFFSET 21.034023 16.243759 13.952237
								CHANNELS 3 Xrotation Yrotation Zrotation
								End Site
								{
									OFFSET 4.597208 3.550217 3.049402
								}
							}
						}
					}
				}
			}
		}
	}
	JOINT LeftUpLeg
	{
		OFFSET 7.038212 -0.121086 7.132185
		CHANNELS 3 Xrotation Yrotation Zrotation
		JOINT LeftLowLeg
		{
			OFFSET 3.179462 -46.730679 7.079810
			CHANNELS 3 Xrotation Yrotation Zrotation
			JOINT LeftFoot
			{
				OFFSET 14.062210 -42.032104 -6.010349
				CHANNELS 3 Xrotation Yrotation Zrotation
				JOINT LeftToe
				{
					OFFSET -7.560493 -18.763361 12.261106
					CHANNELS 3 Xrotation Yrotation Zrotation
					End Site
					{
						OFFSET -13.437737 -5.412441 18.700041
					}
				}
			}
		}
	}
	JOINT RightUpLeg
	{
		OFFSET -7.038194 0.120895 -7.132212
		CHANNELS 3 Xrotation Yrotation Zrotation
		JOINT RightLowLeg
		{
			OFFSET 1.744219 -46.875641 -6.606433
			CHANNELS 3 Xrotation Yrotation Zrotation
			JOINT RightFoot
			{
				OFFSET 9.542521 -42.029701 -11.959290
				CHANNELS 3 Xrotation Yrotation Zrotation
				JOINT RightToe
				{
					OFFSET -14.634838 -17.427353 6.454918
					CHANNELS 3 Xrotation Yrotation Zrotation
					End Site
					{
						OFFSET -21.068062 -3.333471 10.226482
					}
				}
			}
		}
	}
}
MOTION
Frames: 14
Frame Time: 0.033333
-12.823648 104.345909 -7.063732 -5.193337 -12.717519 6.510053 13.862371 0.776917 5.973339 -0.095140 2.622740 -6.854637 -6.731043 -2.409800 -3.238954 4.625207 9.375770 -8.668483 0.000001 0.000003 -0.000001 1.667410 -2.774224 -4.949646 -2.059408 1.522400 2.621166 -4.959811 6.808988 8.256532 0.000000 -0.000010 -0.000000 0.091866 -0.069736 -5.007747 -7.229555 -1.273402 -0.188276 -1.356306 2.873569 -6.342989 0.000003 0.000000 0.000004 -27.514766 4.679962 -34.532111 49.476442 41.457879 79.796205 -5.972706 -21.159195 -14.796148 -0.000000 -0.000002 -0.000003 -6.893146 3.169657 -19.754657 13.644043 1.416874 19.945636 -9.910611 3.261800 -1.000488 0.000003 0.000002 0.000000 
-12.738430 104.404762 -7.143958 -5.394368 -12.562694 6.500386 14.463226 0.846839 6.010480 -0.074876 2.640599 -6.879431 -6.892290 -2.468964 -3.325543 4.790773 9.187989 -8.383409 0.000003 0.000003 -0.000002 1.742051 -3.148692 -4.753936 -2.094568 1.676024 2.906925 -4.613290 6.912740 8.128224 -0.000000 -0.000006 -0.000001 0.189111 -0.177117 -5.185127 -7.415906 -1.462592 -0.066749 -0.821301 2.290458 -6.006365 0.000003 -0.000003 0.000001 -27.608058 4.848533 -35.101346 50.466260 42.206000 79.346021 -6.309028 -20.924887 -14.920176 0.000001 -0.000002 -0.000004 -6.629091 3.078455 -19.587620 14.000033 1.528659 19.405788 -9.872472 4.282309 -0.088498 0.000001 0.000000 0.000001 
-12.645156 104.453148 -7.222792 -5.710093 -12.641565 6.586462 14.671834 0.855848 6.175571 -0.564919 2.621055 -6.991584 -6.338664 -2.247469 -3.335157 4.977488 9.106814 -8.383953 0.000001 -0.000002 -0.000002 1.763664 -3.051654 -4.837629 -2.046925 1.656146 2.857370 -4.349981 6.380037 7.967657 0.000000 -0.000006 -0.000000 0.378747 -0.128108 -5.371128 -7.310184 -1.428108 -0.113502 -1.035584 2.034514 -5.446321 0.000007 0.000000 0.000001 -27.314461 4.920446 -35.875456 50.182045 42.493609 80.206351 -6.046774 -21.560286 -15.043753 -0.000000 -0.000001 -0.000003 -6.425827 3.101629 -19.741704 13.910239 1.425030 19.402716 -9.782487 4.053707 -0.261535 -0.000000 -0.000002 0.000000 
-12.561611 104.491341 -7.303437 -5.822504 -12.812442 6.615097 14.533715 0.813551 6.235740 -0.801738 2.664466 -7.079587 -6.136695 -2.124162 -3.261687 5.487841 9.380810 -8.464813 0.000002 0.000001 -0.000000 2.056543 -3.016382 -4.910440 -1.624404 2.110486 3.018245 -4.003956 6.401565 8.332791 0.000001 -0.000008 0.000001 0.793741 -0.082649 -5.375314 -7.030333 -1.776283 -0.141655 -2.738937 2.400068 -5.507438 0.000005 0.000001 0.000001 -27.446700 5.017034 -36.170926 50.707160 42.966309 80.177091 -6.629633 -21.107871 -15.241314 0.000001 -0.000006 -0.000002 -6.437452 3.145495 -19.908316 14.180844 1.486872 19.551693 -10.118015 4.366941 -0.129509 0.000002 0.000002 -0.000001 
-12.487099 104.523361 -7.381788 -6.130304 -13.165253 6.579006 14.769063 0.845676 6.058596 -1.191110 2.569935 -7.015614 -5.885454 -1.817613 -3.166542 5.481261 9.314083 -8.449058 -0.000001 0.000001 -0.000000 2.055565 -2.867385 -5.116188 -1.595886 2.156798 3.023983 -3.991897 6.537719 8.406429 0.000000 -0.000004 0.000000 0.775272 -0.023989 -5.269990 -7.181989 -1.830888 -0.072140 -3.397245 2.619121 -5.434206 0.000004 0.000003 0.000003 -27.377174 4.967822 -35.982844 51.039770 43.236170 80.034620 -6.642489 -21.254220 -15.338981 0.000000 -0.000004 -0.000005 -6.272020 3.127663 -19.937671 14.276090 1.521058 19.472465 -10.031759 4.485138 0.050123 0.000000 0.000000 0.000000 
-12.420204 104.549576 -7.470169 -5.572517 -13.286310 6.590361 14.041315 0.770447 6.116958 -0.638420 2.713540 -7.133105 -6.000754 -1.595753 -3.048215 4.935347 9.011051 -8.121623 0.000001 0.000001 -0.000000 2.038237 -3.176372 -5.097745 -1.642830 2.630714 3.426670 -3.794158 6.082555 8.149510 0.000000 -0.000006 -0.000000 1.249129 0.303165 -5.217477 -7.839202 -2.251925 -0.069235 -2.939401 2.426071 -5.532241 0.000004 -0.000001 0.000003 -27.334345 4.858272 -35.838778 50.986963 43.420711 80.390022 -6.960563 -21.374095 -15.618416 0.000001 -0.000004 -0.000004 -6.754161 3.250553 -19.887556 13.867197 1.431401 19.656740 -9.894336 3.772193 -0.492939 0.000001 -0.000002 0.000001 
-12.349220 104.566582 -7.548497 -5.706447 -13.557360 6.748534 14.348153 0.833581 5.902851 -0.372823 2.766912 -7.182758 -6.363408 -1.794056 -3.058314 4.874565 9.022058 -8.086066 0.000002 -0.000000 -0.000001 1.991068 -2.749746 -5.051633 -1.693377 2.554967 3.522751 -3.882077 5.987211 8.151435 0.000001 -0.000006 0.000001 1.371082 0.423595 -5.212838 -7.996827 -2.349442 0.069092 -2.861940 2.522662 -5.642336 0.000001 0.000001 0.000001 -26.902834 4.694150 -35.639931 49.922976 43.212353 81.869994 -7.060133 -22.237219 -16.129582 -0.000000 -0.000003 -0.000003 -6.513890 3.303678 -20.234581 13.443262 1.323117 19.843291 -9.933552 3.626438 -0.651047 -0.000000 -0.000003 -0.000002 
-12.286514 104.584801 -7.622709 -5.341713 -13.794082 6.828430 14.371367 0.859078 5.767724 -0.235061 2.743161 -7.111103 -6.659432 -1.649096 -3.148864 4.643921 8.915761 -7.957005 0.000001 0.000001 -0.000000 2.023695 -3.028640 -5.058448 -1.904702 3.135134 3.836984 -4.029954 5.788530 8.139849 0.000000 -0.000004 0.000000 0.857974 0.248349 -4.968405 -7.713548 -2.116250 -0.060642 -2.445163 2.373227 -5.566259 0.000006 0.000000 0.000000 -26.863462 4.609839 -35.221544 49.865838 43.301781 82.126775 -7.469356 -22.531710 -16.565748 0.000001 0.000002 0.000001 -6.937304 3.360183 -20.276637 13.458688 1.318924 19.794069 -10.112615 3.623493 -0.704385 0.000001 -0.000003 0.000000 
-12.223929 104.589119 -7.697824 -4.929488 -13.860342 6.902313 14.268707 0.867613 5.795557 -0.590644 2.589429 -6.901236 -6.291753 -1.537914 -3.314765 4.070385 8.744518 -8.057252 -0.000000 -0.000001 0.000000 1.756858 -2.994251 -5.047587 -2.233834 3.390189 3.699663 -4.585200 5.872123 8.061575 0.000000 -0.000010 -0.000000 0.576065 0.391511 -4.731153 -8.076548 -1.978929 -0.492009 -0.820152 1.904638 -5.320193 0.000003 -0.000003 0.000002 -26.683777 4.540414 -34.932528 49.484400 43.360288 82.706645 -7.085589 -22.460934 -16.213071 0.000001 -0.000003 0.000000 -7.255799 3.376397 -20.270567 13.292896 1.168138 19.568125 -9.887211 3.673831 -0.687461 0.000001 -0.000002 0.000000 
-12.155336 104.590744 -7.777493 -4.357341 -14.719430 7.168037 14.337011 0.905014 5.368568 -0.216816 2.738481 -7.127949 -6.429386 -1.794057 -3.017505 3.014027 8.883347 -8.428579 -0.000002 -0.000000 -0.000001 1.204027 -0.476222 -4.797236 -2.413786 1.802743 3.633553 -4.421185 5.077359 7.835300 -0.000000 -0.000010 -0.000001 0.333907 0.346445 -4.466489 -7.932247 -1.921168 -0.980380 -0.420748 1.870686 -5.397103 -0.000001 0.000001 0.000003 -27.016415 4.526964 -34.348775 50.380264 43.806132 81.903175 -7.096018 -22.118772 -16.039603 0.000000 -0.000001 -0.000001 -8.398749 3.537340 -20.368664 14.538404 1.573976 19.196385 -10.170252 5.564184 0.820060 -0.000000 -0.000002 -0.000001 
-12.089388 104.588661 -7.866292 -3.784855 -15.224381 7.506344 14.232009 0.901729 5.146228 -0.253822 2.887624 -7.472943 -6.345778 -1.533550 -2.629196 1.577247 8.606484 -8.419742 0.000000 -0.000001 -0.000001 1.010296 0.298003 -4.703660 -2.530004 1.242858 3.577099 -4.510051 5.146261 7.836054 0.000000 -0.000006 0.000001 0.111799 0.222254 -4.463801 -8.021773 -1.881355 -1.041524 -0.870558 2.220663 -5.533191 0.000003 0.000000 0.000001 -27.597038 4.583489 -33.919887 51.727987 44.352643 80.591226 -7.545166 -21.351211 -16.002298 0.000003 -0.000001 -0.000001 -9.030535 3.645142 -20.541913 14.913930 1.629750 18.838946 -10.180877 6.190782 1.297897 0.000001 0.000000 0.000000 
-12.025160 104.592064 -7.949168 -3.437806 -15.242462 7.655538 14.471079 0.942506 5.001695 -0.199116 2.811910 -7.348380 -6.627832 -1.667436 -2.609977 1.539055 8.401196 -8.395067 -0.000000 -0.000002 -0.000003 0.853357 0.574797 -4.768605 -2.806973 1.128017 3.592113 -4.792620 5.093596 7.693525 0.000000 -0.000006 -0.000000 0.001859 0.338186 -4.353566 -8.354492 -1.812956 -1.234277 -0.675044 2.340239 -5.520971 0.000004 0.000001 -0.000002 -27.498772 4.599600 -33.901535 51.910848 44.439239 80.596936 -7.169398 -21.541476 -15.915389 0.000001 0.000001 -0.000002 -9.433494 3.668874 -20.555391 14.950844 1.792962 18.585976 -10.202214 6.534754 1.629964 0.000000 -0.000003 0.000000 
-11.961171 104.602211 -8.036602 -3.620758 -14.685523 7.682324 15.193397 1.014024 5.079027 -0.924201 2.559715 -7.036273 -6.138634 -2.104862 -2.861565 1.178562 8.443715 -8.474069 0.000005 -0.000000 -0.000000 0.669087 0.776299 -4.576748 -2.914477 1.221050 3.594302 -4.831399 4.767110 7.503477 0.000000 -0.000010 -0.000002 0.148303 0.496441 -4.386308 -8.943402 -1.926292 -1.365238 -0.237114 2.319190 -5.368239 0.000005 0.000000 0.000000 -26.787394 4.470241 -34.207828 51.622795 44.431815 81.128017 -6.948023 -21.747546 -15.914127 -0.000001 -0.000002 -0.000005 -9.237874 3.655120 -20.473690 14.373990 1.708393 18.458540 -10.037302 5.829298 1.175778 0.000001 0.000000 -0.000000 
-11.901342 104.611176 -8.125395 -3.541249 -14.653264 7.734890 15.044400 1.000757 5.182830 -1.431146 2.513698 -7.115858 -5.537034 -1.877353 -2.781440 1.269676 8.304849 -8.386426 0.000000 0.000003 -0.000001 0.589368 0.813125 -4.533564 -3.002814 1.026850 3.512592 -4.813789 4.453939 7.287658 0.000000 -0.000006 -0.000001 0.389587 0.616335 -4.666746 -9.116658 -1.898324 -1.237270 0.552073 1.992477 -5.176707 0.000007 -0.000002 0.000003 -26.970954 4.471554 -34.027675 51.565411 44.433645 81.259594 -6.635377 -21.779844 -15.723785 0.000000 -0.000002 -0.000003 -9.166066 3.663987 -20.487540 14.132043 1.677440 18.335604 -9.858546 5.454062 0.918831 -0.000001 -0.000002 -0.000000 
